<?xml version="1.0" encoding="utf-8"?>
<!-- Generator: Adobe Illustrator 19.1.0, SVG Export Plug-In . SVG Version: 6.00 Build 0)  -->
<svg version="1.1" id="Layer_1" xmlns="http://www.w3.org/2000/svg" xmlns:xlink="http://www.w3.org/1999/xlink" x="0px" y="0px"
	 viewBox="0 0 96 96" enable-background="new 0 0 96 96" xml:space="preserve">
<path id="Facebook_1_" fill="#21242D" d="M96,90.7c0,2.9-2.4,5.3-5.3,5.3H66.2V58.8h12.5l1.9-14.5H66.2v-9.2c0-4.2,1.2-7.1,7.2-7.1
	l7.7,0v-13c-1.3-0.2-5.9-0.6-11.2-0.6c-11.1,0-18.6,6.8-18.6,19.2v10.7H38.8v14.5h12.5V96h-46C2.4,96,0,93.6,0,90.7V5.3
	C0,2.4,2.4,0,5.3,0h85.4C93.6,0,96,2.4,96,5.3V90.7z"/>
</svg>
