<?xml version="1.0" encoding="utf-8"?>
<!-- Generator: Adobe Illustrator 19.1.0, SVG Export Plug-In . SVG Version: 6.00 Build 0)  -->
<svg version="1.1" id="Layer_1" xmlns="http://www.w3.org/2000/svg" xmlns:xlink="http://www.w3.org/1999/xlink" x="0px" y="0px"
	 viewBox="0 0 96 96" enable-background="new 0 0 96 96" xml:space="preserve">
<g>
	<path fill="#21242D" d="M48,1C21.5,1,0,22.6,0,49.2c0,21.3,13.8,39.4,32.8,45.7c2.4,0.4,3.3-1,3.3-2.3c0-1.1,0-4.2-0.1-8.2
		c-13.4,2.9-16.2-6.5-16.2-6.5c-2.2-5.6-5.3-7-5.3-7c-4.4-3,0.3-2.9,0.3-2.9c4.8,0.3,7.4,5,7.4,5c4.3,7.4,11.2,5.2,14,4
		c0.4-3.1,1.7-5.2,3-6.4c-10.7-1.2-21.9-5.3-21.9-23.8c0-5.3,1.9-9.6,4.9-12.9c-0.5-1.2-2.1-6.1,0.5-12.8c0,0,4-1.3,13.2,4.9
		c3.8-1.1,7.9-1.6,12-1.6c4.1,0,8.2,0.6,12,1.6c9.2-6.2,13.2-4.9,13.2-4.9c2.6,6.6,1,11.5,0.5,12.8c3.1,3.4,4.9,7.7,4.9,12.9
		c0,18.5-11.2,22.6-21.9,23.8c1.7,1.5,3.3,4.4,3.3,8.9c0,6.4-0.1,11.6-0.1,13.2c0,1.3,0.9,2.8,3.3,2.3C82.3,88.5,96,70.5,96,49.2
		C96,22.6,74.5,1,48,1z"/>
</g>
</svg>
