<?xml version="1.0" encoding="utf-8"?>
<!-- Generator: Adobe Illustrator 19.1.0, SVG Export Plug-In . SVG Version: 6.00 Build 0)  -->
<svg version="1.1" id="Layer_1" xmlns="http://www.w3.org/2000/svg" xmlns:xlink="http://www.w3.org/1999/xlink" x="0px" y="0px"
	 viewBox="0 0 96 96" enable-background="new 0 0 96 96" xml:space="preserve">
<g>
	<path fill="#21242D" d="M49.1,1.1c-14.2,0-26.9,6.2-35.5,16.1c-2.6,3-4.9,6.4-6.7,10l15.8,12.1c1.8-5.6,5.4-10.3,10-13.7
		c4.6-3.3,10.2-5.3,16.4-5.3c6.6,0,12.6,2.3,17.3,6.2L80,12.8C71.7,5.5,61,1.1,49.1,1.1z"/>
	<path fill="#21242D" d="M21.3,48c0-0.4,0-0.9,0.1-1.3c0.1-2.6,0.6-5.1,1.4-7.4L6.9,27.2C4,33.1,2.3,39.7,2.1,46.7
		c0,0.4,0,0.9,0,1.3c0,0.4,0,0.9,0,1.3c0.2,7,1.9,13.6,4.8,19.5l15.8-12.1c-0.8-2.3-1.2-4.8-1.3-7.4C21.3,48.9,21.3,48.4,21.3,48z"
		/>
	<path fill="#21242D" d="M64.7,71.6c-4.2,2.7-9.6,4.1-15.6,4.1c-3.5,0-6.9-0.7-10-1.9c-2.3-0.9-4.4-2.1-6.4-3.5
		c-4.6-3.4-8.2-8.1-10-13.7L6.9,68.8c1.8,3.6,4,7,6.6,10c8.6,9.9,21.3,16.2,35.5,16.2c4.3,0,8.5-0.6,12.6-1.7
		c6.7-1.9,12.9-5.2,18-10L64.7,71.6z"/>
	<path fill="#21242D" d="M92.9,39.5H90h-41v7.2v2.6v8.3h25.2c-1.3,6.2-4.7,10.9-9.6,14l15,11.6c4.1-3.8,7.5-8.5,10-14.1
		c2.7-6.1,4.2-13.1,4.2-21.1C93.9,45.2,93.5,42.2,92.9,39.5z"/>
</g>
</svg>
