<?xml version="1.0" encoding="utf-8"?>
<!-- Generator: Adobe Illustrator 19.1.0, SVG Export Plug-In . SVG Version: 6.00 Build 0)  -->
<svg version="1.1" id="Layer_1" xmlns="http://www.w3.org/2000/svg" xmlns:xlink="http://www.w3.org/1999/xlink" x="0px" y="0px"
	 viewBox="0 0 96 96" enable-background="new 0 0 96 96" xml:space="preserve">
<g>
	<path fill="#21242D" d="M30.5,42V54c0,0,11.7,0,16.5,0c-2.6,7.8-6.6,12.1-16.5,12.1c-10,0-17.8-8.1-17.8-18.1s7.8-18.1,17.8-18.1
		c5.3,0,8.7,1.9,11.8,4.5c2.5-2.5,2.3-2.9,8.7-8.9c-5.4-4.9-12.6-8-20.5-8C13.7,17.5,0,31.1,0,48c0,16.9,13.7,30.5,30.5,30.5
		c25.2,0,31.3-22,29.3-36.6H30.5z"/>
	<polygon fill="#21242D" points="85.4,42.6 85.4,32 77.9,32 77.9,42.6 67,42.6 67,50.1 77.9,50.1 77.9,61 85.4,61 85.4,50.1 
		96,50.1 96,42.6 	"/>
</g>
</svg>
