<?xml version="1.0" encoding="utf-8"?>
<!-- Generator: Adobe Illustrator 19.1.0, SVG Export Plug-In . SVG Version: 6.00 Build 0)  -->
<svg version="1.1" id="Layer_1" xmlns="http://www.w3.org/2000/svg" xmlns:xlink="http://www.w3.org/1999/xlink" x="0px" y="0px"
	 viewBox="0 0 96 96" enable-background="new 0 0 96 96" xml:space="preserve">
<g id="LinkedIn_1_">
	<rect x="6.2" y="33.7" fill="#21242D" width="17.2" height="54.3"/>
	<path fill="#21242D" d="M70.2,33.1c-9.8,0-16,5.3-17.1,9.1v-8.5H33.8c0.2,4.5,0,54.3,0,54.3h19.3V58.6c0-1.6-0.1-3.3,0.4-4.4
		c1.3-3.3,4.2-6.7,9.3-6.7c6.7,0,9.7,5,9.7,12.4V88H92V57.8C92,40.9,82.4,33.1,70.2,33.1z"/>
	<path fill="#21242D" d="M14.5,8C8.1,8,4,12.1,4,17.4c0,5.3,4,9.4,10.2,9.4h0.1c6.4,0,10.5-4.2,10.5-9.4C24.7,12.1,20.8,8,14.5,8z"
		/>
</g>
</svg>
