<?xml version="1.0" encoding="utf-8"?>
<!-- Generator: Adobe Illustrator 19.1.0, SVG Export Plug-In . SVG Version: 6.00 Build 0)  -->
<svg version="1.1" id="Layer_1" xmlns="http://www.w3.org/2000/svg" xmlns:xlink="http://www.w3.org/1999/xlink" x="0px" y="0px"
	 viewBox="0 0 96 96" enable-background="new 0 0 96 96" xml:space="preserve">
<path id="Pinterest_1_" fill="#21242D" d="M48,0C21.5,0,0,21.5,0,48c0,19.6,11.8,36.5,28.7,44c-0.1-3.3,0-7.4,0.8-11
	c0.9-3.9,6.2-26.2,6.2-26.2s-1.5-3.1-1.5-7.6c0-7.1,4.1-12.4,9.3-12.4c4.4,0,6.5,3.3,6.5,7.2c0,4.4-2.8,11-4.2,17
	c-1.2,5.1,2.6,9.2,7.6,9.2c9.1,0,15.2-11.7,15.2-25.5c0-10.5-7.1-18.4-20-18.4c-14.6,0-23.6,10.9-23.6,23c0,4.2,1.2,7.1,3.2,9.4
	c0.9,1.1,1,1.5,0.7,2.7c-0.2,0.9-0.8,3-1,3.8c-0.3,1.2-1.3,1.7-2.4,1.2c-6.7-2.7-9.8-10.1-9.8-18.3c0-13.6,11.5-30,34.3-30
	c18.3,0,30.4,13.3,30.4,27.5c0,18.8-10.5,32.9-25.9,32.9c-5.2,0-10.1-2.8-11.7-6c0,0-2.8,11.1-3.4,13.2c-1,3.7-3,7.4-4.8,10.3
	c4.3,1.3,8.9,2,13.6,2c26.5,0,48-21.5,48-48C96,21.5,74.5,0,48,0z"/>
</svg>
