<?xml version="1.0" encoding="utf-8"?>
<!-- Generator: Adobe Illustrator 19.1.0, SVG Export Plug-In . SVG Version: 6.00 Build 0)  -->
<svg version="1.1" id="Layer_1" xmlns="http://www.w3.org/2000/svg" xmlns:xlink="http://www.w3.org/1999/xlink" x="0px" y="0px"
	 viewBox="0 0 96 96" enable-background="new 0 0 96 96" xml:space="preserve">
<g>
	<path fill="#21242D" d="M80.9,44.4c-2.1,0-4,0.4-5.8,1.2c-0.4-4.5-1.8-8.7-4.2-12.4c-2.4-3.8-5.6-6.7-9.5-8.9
		c-3.9-2.2-8.2-3.3-12.7-3.3c-2,0-3.9,0.2-5.9,0.7c-0.9,0.3-1.4,1.2-1.4,2.8v49.3c0,0.2,0.1,0.4,0.2,0.6c0.1,0.2,0.3,0.4,0.6,0.5
		l38.9,0c4.1,0,7.7-1.5,10.7-4.5c3-3,4.4-6.6,4.4-10.8c0-4.2-1.5-7.8-4.4-10.8C88.6,45.9,85,44.4,80.9,44.4z"/>
	<path fill="#21242D" d="M3.3,48.8c-0.9,0-1.7,0.3-2.3,1c-0.6,0.6-1,1.4-1,2.4v13.1c0,1.2,0.4,2.1,1.3,2.7c0.9,0.6,1.8,0.8,2.8,0.7
		c0.9-0.2,1.6-0.5,1.9-1c0.4-0.5,0.6-1.3,0.6-2.4V52.2c0-0.9-0.3-1.7-1-2.4C5,49.1,4.2,48.8,3.3,48.8z"/>
	<path fill="#21242D" d="M13.5,37c-0.9,0-1.7,0.3-2.3,1c-0.6,0.6-1,1.4-1,2.3v30.6c0,0.9,0.3,1.5,0.9,2c0.6,0.4,1.4,0.7,2.3,0.7
		c1,0,1.8-0.2,2.4-0.7c0.6-0.4,0.9-1.1,0.9-2V40.3c0-0.9-0.3-1.7-1-2.3C15.2,37.3,14.5,37,13.5,37z"/>
	<path fill="#21242D" d="M23.9,41c-0.9,0-1.7,0.3-2.4,1c-0.7,0.7-1,1.5-1,2.4v28h0c0,0.9,0.3,1.5,0.9,2c0.6,0.4,1.4,0.7,2.4,0.7
		c1,0,1.7-0.2,2.3-0.7c0.6-0.4,0.9-1.1,0.9-2v-28c0-0.9-0.3-1.7-1-2.4C25.5,41.4,24.7,41,23.9,41z"/>
	<path fill="#21242D" d="M35.1,22.9c-1-0.2-2,0-2.9,0.9c-1,0.8-1.4,2-1.4,3.4v45.3h0c0,1.7,1.1,2.5,3.3,2.5s3.3-0.8,3.3-2.5V27.2
		C37.4,24.7,36.6,23.2,35.1,22.9z"/>
</g>
</svg>
