<?xml version="1.0" encoding="utf-8"?>
<!-- Generator: Adobe Illustrator 19.1.0, SVG Export Plug-In . SVG Version: 6.00 Build 0)  -->
<svg version="1.1" id="Layer_1" xmlns="http://www.w3.org/2000/svg" xmlns:xlink="http://www.w3.org/1999/xlink" x="0px" y="0px"
	 viewBox="0 0 96 96" enable-background="new 0 0 96 96" xml:space="preserve">
<path id="Twitter_1_" fill="#21242D" d="M93.4,9.5c-3.8,2.3-8,4-12.5,4.9C77.3,10.4,72.1,8,66.5,8c-10.9,0-19.7,9-19.7,20.2
	c0,1.6,0.2,3.1,0.5,4.6C30.9,32,16.4,23.9,6.7,11.7C5,14.7,4,18.2,4,21.9c0,7,3.5,13.2,8.8,16.8c-3.2-0.1-6.3-1-8.9-2.5v0.2
	c0,9.8,6.8,18,15.8,19.8c-1.7,0.5-3.4,0.7-5.2,0.7c-1.3,0-2.5-0.1-3.7-0.4c2.5,8,9.8,13.9,18.4,14c-6.7,5.4-15.2,8.7-24.5,8.7
	c-1.6,0-3.2-0.1-4.7-0.3C8.7,84.7,19.1,88,30.2,88c36.2,0,56-30.8,56-57.5c0-0.9,0-1.8-0.1-2.6c3.8-2.8,7.2-6.4,9.8-10.5
	c-3.5,1.6-7.3,2.7-11.3,3.2C88.8,18.2,91.9,14.2,93.4,9.5z"/>
</svg>
