<?xml version="1.0" encoding="utf-8"?>
<!-- Generator: Adobe Illustrator 19.1.0, SVG Export Plug-In . SVG Version: 6.00 Build 0)  -->
<svg version="1.1" id="Layer_1" xmlns="http://www.w3.org/2000/svg" xmlns:xlink="http://www.w3.org/1999/xlink" x="0px" y="0px"
	 viewBox="0 0 96 96" enable-background="new 0 0 96 96" xml:space="preserve">
<g id="Vimeo_1_">
	<path fill="#21242D" d="M82,7c-13.3-0.4-22.4,7-27.1,22.1c2.4-1,4.8-1.5,7.1-1.5c4.9,0,7,2.7,6.5,8.1C68.1,39,66,43.8,62,50
		c-4,6.2-7,9.4-9,9.4c-2.6,0-4.9-4.8-7.1-14.5c-0.7-2.8-2-10.1-3.9-21.7C40.2,12.4,35.6,7.4,28.2,8.1C25,8.4,20.3,11.2,14,16.6
		c-4.6,4.1-9.3,8.2-14,12.3l4.5,5.8c4.3-3,6.8-4.5,7.5-4.5c3.3,0,6.4,5.1,9.3,15.3c2.6,9.4,5.2,18.7,7.8,28.1
		C32.9,83.9,37.7,89,43.2,89c9,0,20.1-8.4,33.1-25.1C89,47.8,95.5,35.2,96,26C96.5,13.6,91.9,7.3,82,7z"/>
</g>
</svg>
