<?xml version="1.0" encoding="utf-8"?>
<!-- Generator: Adobe Illustrator 19.1.0, SVG Export Plug-In . SVG Version: 6.00 Build 0)  -->
<svg version="1.1" id="Layer_1" xmlns="http://www.w3.org/2000/svg" xmlns:xlink="http://www.w3.org/1999/xlink" x="0px" y="0px"
	 viewBox="0 0 96 96" enable-background="new 0 0 96 96" xml:space="preserve">
<g id="Youtube_1_">
	<path fill="#21242D" d="M91.2,19.2c-3.7-3.9-7.7-3.9-9.6-4.1c-13.4-1-33.6-1-33.6-1h0c0,0-20.2,0-33.6,1c-1.9,0.2-6,0.2-9.6,4.1
		C1.9,22.1,1,28.8,1,28.8s-1,7.8-1,15.6v7.3c0,7.8,1,15.6,1,15.6s0.9,6.7,3.8,9.6c3.7,3.9,8.5,3.7,10.6,4.1c7.7,0.7,32.6,1,32.6,1
		s20.2,0,33.6-1c1.9-0.2,6-0.2,9.6-4.1c2.9-2.9,3.8-9.6,3.8-9.6s1-7.8,1-15.6v-7.3c0-7.8-1-15.6-1-15.6S94.1,22.1,91.2,19.2z
		 M38.1,60.6l0-27.2L64,47.1L38.1,60.6z"/>
</g>
</svg>
